<?xml version="1.0" standalone="no"?>
<!DOCTYPE svg PUBLIC "-//W3C//DTD SVG 20010904//EN"
 "http://www.w3.org/TR/2001/REC-SVG-20010904/DTD/svg10.dtd">
<svg version="1.0" xmlns="http://www.w3.org/2000/svg"
 width="50.000000pt" height="50.000000pt" viewBox="0 0 50.000000 50.000000"
 preserveAspectRatio="xMidYMid meet">

<g transform="translate(0.000000,50.000000) scale(0.100000,-0.100000)"
fill="#000000" stroke="none">
<path d="M186 445 c-57 -20 -87 -46 -116 -96 -49 -88 -22 -212 59 -266 42 -28
61 -29 61 -3 0 13 -7 20 -19 20 -11 0 -29 14 -41 31 -26 35 -22 49 5 19 10
-11 26 -20 35 -20 20 0 37 33 21 38 -5 2 -22 13 -36 24 -28 22 -29 30 -9 141
6 38 28 49 51 26 11 -11 89 -8 129 6 19 6 22 2 28 -32 20 -112 19 -119 -9
-141 -14 -11 -29 -22 -34 -24 -4 -2 -5 -29 -2 -60 l6 -58 30 15 c73 37 125
135 110 212 -16 87 -71 150 -150 172 -51 14 -71 13 -119 -4z"/>
</g>
</svg>
