<?xml version="1.0" standalone="no"?>
<!DOCTYPE svg PUBLIC "-//W3C//DTD SVG 20010904//EN"
 "http://www.w3.org/TR/2001/REC-SVG-20010904/DTD/svg10.dtd">
<svg version="1.0" xmlns="http://www.w3.org/2000/svg"
 width="50.000000pt" height="50.000000pt" viewBox="0 0 50.000000 50.000000"
 preserveAspectRatio="xMidYMid meet">

<g transform="translate(0.000000,50.000000) scale(0.100000,-0.100000)"
fill="#000000" stroke="none">
<path d="M109 391 c-29 -29 -29 -31 -29 -141 0 -110 0 -112 29 -141 29 -29 31
-29 141 -29 110 0 112 0 141 29 29 29 29 31 29 141 0 110 0 112 -29 141 -29
29 -31 29 -141 29 -110 0 -112 0 -141 -29z m258 -23 c21 -20 23 -30 23 -117 0
-83 -3 -97 -22 -118 -20 -21 -30 -23 -117 -23 -83 0 -97 3 -118 22 -21 20 -23
30 -23 117 0 83 3 97 22 118 20 21 30 23 117 23 83 0 97 -3 118 -22z"/>
<path d="M335 349 c-10 -15 3 -25 16 -12 7 7 7 13 1 17 -6 3 -14 1 -17 -5z"/>
<path d="M185 315 c-35 -34 -35 -96 0 -130 18 -19 35 -25 65 -25 56 0 90 34
90 90 0 56 -34 90 -90 90 -30 0 -47 -6 -65 -25z m107 -22 c22 -20 23 -61 1
-85 -34 -38 -103 -11 -103 40 0 54 62 81 102 45z"/>
</g>
</svg>
