<?xml version="1.0" standalone="no"?>
<!DOCTYPE svg PUBLIC "-//W3C//DTD SVG 20010904//EN"
 "http://www.w3.org/TR/2001/REC-SVG-20010904/DTD/svg10.dtd">
<svg version="1.0" xmlns="http://www.w3.org/2000/svg"
 width="48.000000pt" height="48.000000pt" viewBox="0 0 48.000000 48.000000"
 preserveAspectRatio="xMidYMid meet">

<g transform="translate(0.000000,48.000000) scale(0.100000,-0.100000)"
fill="#000000" stroke="none">
<path d="M175 426 c-57 -26 -95 -85 -95 -147 0 -36 22 -82 61 -127 16 -18 29
-41 29 -50 0 -36 29 -62 70 -62 41 0 70 26 70 62 0 9 13 32 29 50 84 97 80
193 -11 261 -34 25 -113 32 -153 13z m144 -44 c34 -25 55 -82 47 -125 -3 -19
-22 -52 -42 -75 -33 -39 -40 -42 -84 -42 -44 0 -51 3 -84 42 -41 48 -53 92
-37 141 20 59 69 90 135 83 22 -3 51 -13 65 -24z m-41 -289 c-2 -13 -13 -18
-38 -18 -25 0 -36 5 -38 18 -3 14 4 17 38 17 34 0 41 -3 38 -17z"/>
</g>
</svg>
