<?xml version="1.0" standalone="no"?>
<!DOCTYPE svg PUBLIC "-//W3C//DTD SVG 20010904//EN"
 "http://www.w3.org/TR/2001/REC-SVG-20010904/DTD/svg10.dtd">
<svg version="1.0" xmlns="http://www.w3.org/2000/svg"
 width="50.000000pt" height="50.000000pt" viewBox="0 0 50.000000 50.000000"
 preserveAspectRatio="xMidYMid meet">

<g transform="translate(0.000000,50.000000) scale(0.100000,-0.100000)"
fill="#000000" stroke="none">
<path d="M92 408 c-17 -17 -17 -299 0 -316 17 -17 299 -17 316 0 17 17 17 299
0 316 -17 17 -299 17 -316 0z m298 -158 l0 -140 -140 0 -140 0 0 140 0 140
140 0 140 0 0 -140z"/>
<path d="M142 338 c2 -15 10 -23 23 -23 30 0 27 39 -3 43 -20 3 -23 0 -20 -20z"/>
<path d="M140 215 c0 -73 1 -75 25 -75 24 0 25 2 25 75 0 73 -1 75 -25 75 -24
0 -25 -2 -25 -75z"/>
<path d="M220 215 c0 -68 2 -75 19 -75 17 0 20 8 23 53 3 45 6 52 26 55 21 3
22 0 22 -52 0 -53 1 -56 25 -56 24 0 25 3 25 56 0 30 -5 64 -10 75 -12 22 -59
26 -78 7 -9 -9 -12 -9 -12 0 0 7 -9 12 -20 12 -18 0 -20 -7 -20 -75z"/>
</g>
</svg>
