<?xml version="1.0" standalone="no"?>
<!DOCTYPE svg PUBLIC "-//W3C//DTD SVG 20010904//EN"
 "http://www.w3.org/TR/2001/REC-SVG-20010904/DTD/svg10.dtd">
<svg version="1.0" xmlns="http://www.w3.org/2000/svg"
 width="30.000000pt" height="30.000000pt" viewBox="0 0 30.000000 30.000000"
 preserveAspectRatio="xMidYMid meet">

<g transform="translate(0.000000,30.000000) scale(0.100000,-0.100000)"
fill="#000000" stroke="none">
<path d="M97 239 c-23 -13 -47 -62 -47 -95 0 -16 13 -39 35 -61 32 -32 39 -35
78 -30 29 4 49 14 65 32 30 36 24 51 -20 47 -29 -3 -40 2 -57 24 -14 18 -19
34 -15 48 3 12 7 25 8 30 2 14 -26 17 -47 5z"/>
</g>
</svg>
