<?xml version="1.0" standalone="no"?>
<!DOCTYPE svg PUBLIC "-//W3C//DTD SVG 20010904//EN"
 "http://www.w3.org/TR/2001/REC-SVG-20010904/DTD/svg10.dtd">
<svg version="1.0" xmlns="http://www.w3.org/2000/svg"
 width="64.000000pt" height="64.000000pt" viewBox="0 0 64.000000 64.000000"
 preserveAspectRatio="xMidYMid meet">

<g transform="translate(0.000000,64.000000) scale(0.100000,-0.100000)"
fill="#000000" stroke="none">
<path d="M115 579 c-50 -46 -89 -103 -83 -121 2 -6 16 9 30 33 14 24 39 56 55
71 l28 27 0 -77 c1 -92 23 -148 83 -214 90 -97 227 -127 355 -79 l28 11 -23
-41 c-92 -164 -319 -198 -461 -69 -70 64 -100 130 -101 222 -1 38 -4 68 -8 68
-5 0 -8 -29 -8 -65 0 -128 63 -231 177 -287 59 -29 77 -33 143 -32 86 1 145
22 205 76 44 38 95 113 95 139 0 16 -4 16 -48 -4 -35 -16 -67 -22 -122 -22
-128 0 -222 61 -278 183 -21 47 -24 64 -20 138 2 46 3 84 1 84 -2 0 -24 -19
-48 -41z"/>
<path d="M20 429 c0 -5 5 -7 10 -4 6 3 10 8 10 11 0 2 -4 4 -10 4 -5 0 -10 -5
-10 -11z"/>
</g>
</svg>
