<?xml version="1.0" standalone="no"?>
<!DOCTYPE svg PUBLIC "-//W3C//DTD SVG 20010904//EN"
 "http://www.w3.org/TR/2001/REC-SVG-20010904/DTD/svg10.dtd">
<svg version="1.0" xmlns="http://www.w3.org/2000/svg"
 width="30.000000pt" height="30.000000pt" viewBox="0 0 30.000000 30.000000"
 preserveAspectRatio="xMidYMid meet">

<g transform="translate(0.000000,30.000000) scale(0.100000,-0.100000)"
fill="#000000" stroke="none">
<path d="M64 236 c-30 -30 -34 -40 -34 -86 0 -75 45 -120 120 -120 75 0 120
45 120 120 0 46 -4 56 -34 86 -30 30 -40 34 -86 34 -46 0 -56 -4 -86 -34z
m162 -10 c48 -48 48 -104 0 -152 -28 -28 -42 -34 -76 -34 -34 0 -48 6 -76 34
-48 48 -48 104 0 152 28 28 42 34 76 34 34 0 48 -6 76 -34z"/>
</g>
</svg>
